<?xml version="1.0" encoding="UTF-8"?>
<!-- Generator: visioncortex VTracer 0.6.4 -->
<svg version="1.1" xmlns="http://www.w3.org/2000/svg" width="128" height="128">
<path d="M0 0 C2.38 0.69 2.38 0.69 3.38 1.69 C3.05 7.24 1.43 10.16 -1.62 14.69 C-1.79 17.31 -1.79 17.31 -1.62 19.69 C5.92 23.11 13.37 25.73 21.41 27.72 C27.42 29.33 31.25 31.86 35.05 36.93 C35.65 37.95 35.65 37.95 36.25 39 C36.66 39.7 37.07 40.39 37.49 41.11 C37.78 41.63 38.07 42.15 38.38 42.69 C39.11 42.24 39.85 41.8 40.61 41.34 C41.58 40.77 42.56 40.21 43.56 39.62 C44.53 39.06 45.49 38.49 46.48 37.9 C49.72 36.54 51.1 36.58 54.38 37.69 C55.38 38.69 55.38 38.69 55.66 41.06 C55.38 43.69 55.38 43.69 53.91 45.35 C42.11 53.49 42.11 53.49 36.75 53.88 C33.58 52.29 31.86 50.05 29.71 47.28 C28.45 45.56 28.45 45.56 26.38 44.69 C26.41 56.75 29.97 67.63 33.44 79.06 C34.29 81.9 35.14 84.73 35.99 87.57 C36.5 89.33 37.03 91.08 37.57 92.82 C40.86 103.9 40.86 103.9 38.31 108.69 C35.24 110.27 32.65 109.37 29.38 108.69 C26.62 102.12 24.3 95.54 22.38 88.69 C21.9 89.37 21.43 90.05 20.94 90.75 C18.19 92.83 17.65 93.03 14.38 92.88 C7.26 91.75 1.32 87.44 -4.48 83.4 C-6.43 80.49 -6 78.08 -5.62 74.69 C-4.09 71.68 -4.09 71.68 -2.12 68.56 C2.73 60.06 1.86 51.5 1.41 42.01 C1.36 38.8 1.8 35.84 2.38 32.69 C1.51 32.44 0.64 32.19 -0.25 31.94 C-5.52 29.99 -9.6 27.47 -12.62 22.69 C-13.78 17.98 -13.26 14.01 -11.16 9.66 C-4.8 -0.57 -4.8 -0.57 0 0 Z M14.38 64.69 C12.78 66.83 12.78 66.83 11.25 69.5 C10.71 70.39 10.17 71.29 9.62 72.21 C8.15 74.67 8.15 74.67 8.38 77.69 C10.17 78.67 11.96 79.65 13.75 80.62 C15.25 81.44 15.25 81.44 16.77 82.28 C18.3 83.1 19.83 83.91 21.38 84.69 C20.14 77.86 18.48 71.29 16.38 64.69 C15.72 64.69 15.05 64.69 14.38 64.69 Z " fill="#EBEBEB" transform="translate(44.625,9.3125)"/>
<path d="M0 0 C3.18 2.26 3.89 3.59 4.94 7.38 C5.01 11.59 4.36 13.53 2 17 C-1.17 19.81 -2.72 20 -7 20 C-11.24 19.29 -13.3 17.35 -16 14 C-17.41 11.18 -17.25 9.13 -17 6 C-15.52 2.25 -14.24 1.14 -10.75 -0.94 C-6.26 -2.21 -4.25 -1.84 0 0 Z " fill="#E6E6E6" transform="translate(71,16)"/>
</svg>
