<?xml version="1.0" encoding="UTF-8"?>
<!-- Generator: visioncortex VTracer 0.6.4 -->
<svg version="1.1" xmlns="http://www.w3.org/2000/svg" width="128" height="128">
<path d="M0 0 C12.06 9.12 20.73 21.87 23 37 C24.15 56.35 21.07 72.47 8.19 87.69 C-3.53 100.07 -18.44 106.77 -35.5 107.38 C-50.82 106.79 -66.86 101.2 -77.98 90.31 C-91.25 75.12 -95.92 59.41 -95.18 39.45 C-94.2 26.02 -86.67 13.09 -77 4 C-54.38 -14.39 -24.27 -16.99 0 0 Z M-54.13 17.62 C-54.64 18.14 -55.15 18.65 -55.68 19.18 C-57.24 20.74 -58.83 22.29 -60.41 23.83 C-61.41 24.82 -62.4 25.81 -63.39 26.8 C-64.3 27.7 -65.21 28.6 -66.14 29.53 C-68.18 31.75 -68.18 31.75 -68.07 34.01 C-66.57 36.79 -64.65 38.74 -62.41 40.98 C-61.02 42.39 -61.02 42.39 -59.59 43.82 C-59.11 44.3 -58.62 44.78 -58.12 45.27 C-56.63 46.75 -55.15 48.24 -53.68 49.73 C-52.28 51.12 -52.28 51.12 -50.85 52.55 C-49.99 53.4 -49.14 54.26 -48.25 55.14 C-46.1 57.32 -46.1 57.32 -43 57 C-43 52.71 -43 48.42 -43 44 C-42.07 44.01 -41.13 44.01 -40.17 44.02 C-36.72 44.03 -33.26 44.05 -29.81 44.05 C-28.31 44.06 -26.82 44.07 -25.32 44.08 C-23.17 44.09 -21.03 44.09 -18.88 44.1 C-17.59 44.1 -16.29 44.11 -14.96 44.11 C-12.11 44.34 -12.11 44.34 -11 43 C-10.91 41.58 -10.89 40.16 -10.9 38.75 C-10.9 37.98 -10.91 37.21 -10.91 36.42 C-10.92 35.43 -10.93 34.45 -10.94 33.44 C-10.96 30.32 -10.98 27.21 -11 24 C-21.56 24 -32.12 24 -43 24 C-43 19.38 -43 14.76 -43 10 C-48.04 10 -50.72 14.24 -54.13 17.62 Z M-67 65 C-67 71.6 -67 78.2 -67 85 C-63.04 85 -59.08 85 -55 85 C-55 84.34 -55 83.68 -55 83 C-57.64 82.67 -60.28 82.34 -63 82 C-63 80.35 -63 78.7 -63 77 C-60.36 76.67 -57.72 76.34 -55 76 C-55 75.34 -55 74.68 -55 74 C-57.64 73.67 -60.28 73.34 -63 73 C-63.33 71.35 -63.66 69.7 -64 68 C-61.03 68 -58.06 68 -55 68 C-55 67.01 -55 66.02 -55 65 C-58.96 65 -62.92 65 -67 65 Z M-49 65 C-48.57 65.61 -48.14 66.21 -47.7 66.84 C-45.99 69.59 -44.78 71.84 -44 75 C-45.34 78.86 -47.44 81.84 -50 85 C-47.55 84.69 -47.55 84.69 -45 84 C-43.28 81.56 -43.28 81.56 -42 79 C-41.34 78.67 -40.68 78.34 -40 78 C-39.69 78.78 -39.38 79.57 -39.06 80.38 C-38.07 82.92 -38.07 82.92 -37 85 C-35.68 84.67 -34.36 84.34 -33 84 C-33.37 83.48 -33.75 82.96 -34.13 82.43 C-37.98 76.75 -37.98 76.75 -38.06 73.38 C-36.7 70.33 -34.95 67.7 -33 65 C-35.44 65.19 -35.44 65.19 -38 66 C-39.36 67.97 -39.36 67.97 -40 70 C-43 69 -43 69 -44.19 66.94 C-44.46 66.3 -44.72 65.66 -45 65 C-46.32 65 -47.64 65 -49 65 Z M-27 65 C-27 71.6 -27 78.2 -27 85 C-26.01 85 -25.02 85 -24 85 C-24 78.4 -24 71.8 -24 65 C-24.99 65 -25.98 65 -27 65 Z M-19 65 C-19 65.99 -19 66.98 -19 68 C-17.02 68 -15.04 68 -13 68 C-13 73.61 -13 79.22 -13 85 C-12.01 85 -11.02 85 -10 85 C-10 79.39 -10 73.78 -10 68 C-8.02 68 -6.04 68 -4 68 C-4 67.01 -4 66.02 -4 65 C-8.95 65 -13.9 65 -19 65 Z " fill="#D8311A" transform="translate(100,16)"/>
</svg>
